<svg width="206.000000" height="36.000000" viewBox="0 0 206 36" fill="none" xmlns="http://www.w3.org/2000/svg" xmlns:xlink="http://www.w3.org/1999/xlink">
	<desc>
			Created with Pixso.
	</desc>
	<defs/>
	<path id="Union" d="M21.48 0.55C21.27 0.21 20.9 0 20.5 0C20.1 -0.01 19.73 0.2 19.52 0.54L15.84 6.63C15.52 7.15 15.7 7.83 16.24 8.14C16.78 8.45 17.47 8.28 17.79 7.75L20.48 3.3L37.9 32.78L14.27 32.78L14.27 23.3C14.92 24.16 15.57 24.87 16.25 25.44C17.7 26.66 19.26 27.22 21.17 27.51C21.79 27.61 22.37 27.19 22.46 26.59C22.56 25.98 22.13 25.42 21.52 25.32C19.9 25.08 18.78 24.64 17.73 23.76C16.67 22.87 15.62 21.49 14.27 19.21L14.27 17.77C14.92 18.63 15.57 19.33 16.25 19.91C17.7 21.13 19.26 21.69 21.17 21.98C21.79 22.07 22.37 21.66 22.46 21.05C22.56 20.45 22.13 19.88 21.52 19.79C19.9 19.55 18.78 19.11 17.73 18.23C16.67 17.34 15.62 15.95 14.27 13.67L14.27 12.79C14.92 13.65 15.57 14.35 16.25 14.93C17.7 16.15 19.26 16.71 21.17 17C21.79 17.09 22.37 16.68 22.46 16.07C22.56 15.47 22.13 14.9 21.52 14.81C19.9 14.57 18.78 14.13 17.73 13.25C16.63 12.33 15.54 10.88 14.13 8.46L14.12 8.44C14.07 8.36 14.01 8.28 13.94 8.2C13.86 8.13 13.78 8.07 13.69 8.02C13.61 7.98 13.53 7.95 13.44 7.92C13.34 7.89 13.24 7.88 13.14 7.88C13.04 7.88 12.94 7.89 12.84 7.92C12.74 7.94 12.65 7.98 12.57 8.03C12.48 8.08 12.4 8.14 12.33 8.2C12.27 8.27 12.21 8.35 12.16 8.43C12.15 8.44 12.15 8.45 12.14 8.46C10.73 10.88 9.64 12.33 8.54 13.25C7.49 14.13 6.37 14.57 4.75 14.81C4.14 14.9 3.71 15.47 3.81 16.07C3.9 16.68 4.48 17.09 5.1 17C7.01 16.71 8.56 16.15 10.02 14.93C10.7 14.35 11.35 13.65 12 12.79L12 13.67C10.65 15.95 9.6 17.34 8.54 18.23C7.49 19.11 6.37 19.55 4.75 19.79C4.14 19.88 3.71 20.45 3.81 21.05C3.9 21.66 4.48 22.07 5.1 21.98C7.01 21.69 8.56 21.13 10.02 19.91C10.7 19.33 11.35 18.63 12 17.77L12 19.21C10.65 21.49 9.6 22.87 8.54 23.76C7.49 24.64 6.37 25.08 4.75 25.32C4.14 25.42 3.71 25.98 3.81 26.59C3.9 27.19 4.48 27.61 5.1 27.51C7.01 27.22 8.56 26.66 10.02 25.44C10.7 24.87 11.35 24.16 12 23.3L12 32.78L3.14 32.78L4.76 30.17C5.09 29.65 4.92 28.97 4.38 28.65C3.85 28.34 3.15 28.5 2.83 29.03L0.16 33.31C-0.05 33.66 -0.06 34.08 0.14 34.43C0.34 34.78 0.72 35 1.13 35L39.86 35C40.27 35 40.64 34.78 40.84 34.44C41.05 34.1 41.05 33.68 40.84 33.34L21.48 0.55Z" fill="#45536D" fill-opacity="1.000000" fill-rule="evenodd"/>
	<path id="Синий ЛУГ" d="M140.38 4.72Q140.82 3.9 140.82 2.85L137.99 2.85Q137.99 3.56 137.64 4.01Q137.57 4.1 137.48 4.19Q137.44 4.22 137.4 4.26Q136.9 4.66 136.09 4.66Q135.24 4.66 134.73 4.24Q134.7 4.21 134.67 4.19Q134.57 4.1 134.49 3.99Q134.16 3.55 134.16 2.85L131.35 2.85Q131.35 3.97 131.83 4.82Q132.14 5.37 132.66 5.81Q132.77 5.9 132.89 5.99Q134.15 6.91 136.09 6.91Q137.99 6.91 139.24 6.01Q139.38 5.91 139.51 5.79Q140.06 5.32 140.38 4.72ZM65.08 25.27Q66.23 23.67 66.4 21.36L62.3 21.36Q62.16 23.18 61.22 24.05Q60.29 24.92 58.39 24.92Q56.96 24.92 56.05 24.23Q55.62 23.91 55.3 23.43Q54.33 21.94 54.33 18.71L54.33 17.21Q54.35 14.12 55.37 12.65Q55.72 12.14 56.2 11.81Q57.1 11.18 58.44 11.18Q60.33 11.18 61.25 12.05Q62.17 12.91 62.33 14.84L66.43 14.84Q66.16 12.12 64.71 10.39Q64.38 10 63.99 9.66Q63.76 9.45 63.5 9.27Q61.5 7.82 58.44 7.82Q56.27 7.82 54.57 8.7Q54.32 8.83 54.07 8.98Q53.61 9.27 53.2 9.62Q51.94 10.69 51.18 12.34Q50.17 14.53 50.17 17.4L50.17 18.62Q50.17 23.11 52.37 25.69Q53.09 26.54 53.98 27.11Q55.82 28.27 58.39 28.27Q61.56 28.27 63.61 26.75Q63.83 26.6 64.03 26.42Q64.63 25.9 65.08 25.27ZM85.14 8.09L81.03 8.09L73.06 21.34L73.06 8.09L68.96 8.09L68.96 28L73.06 28L81.03 14.77L81.03 28L85.14 28L85.14 8.09ZM100.8 28L104.9 28L104.9 8.09L100.8 8.09L100.8 16.16L92.8 16.16L92.8 8.09L88.7 8.09L88.7 28L92.8 28L92.8 19.46L100.8 19.46L100.8 28ZM124.53 8.09L120.42 8.09L112.45 21.34L112.45 8.09L108.35 8.09L108.35 28L112.45 28L120.42 14.77L120.42 28L124.53 28L124.53 8.09ZM144.14 8.09L140.02 8.09L132.05 21.34L132.05 8.09L127.95 8.09L127.95 28L132.05 28L140.02 14.77L140.02 28L144.14 28L144.14 8.09ZM170.85 28L170.85 8.09L157.51 8.09L157.17 17.22Q156.99 21.27 156.33 22.85Q155.93 23.79 155.23 24.24Q154.74 24.55 154.12 24.63L153.43 24.7L153.43 28L154.5 28Q156.83 27.98 158.17 27.03Q159.5 26.08 160.2 24.04Q160.9 21.99 161.1 18.44L161.43 11.41L166.74 11.41L166.74 28L170.85 28ZM185.52 8.09L181.9 17.5L177.5 8.09L173.08 8.09L180.07 22.28L179.56 23.58Q179.21 24.39 178.68 24.69Q178.15 24.99 177.29 24.99Q176.55 24.99 176.23 24.93L176.27 28.23L177.7 28.28Q179.38 28.28 180.6 27.54Q181.7 26.87 182.43 25.59L182.99 24.51L189.95 8.09L185.52 8.09ZM196.24 11.41L205.17 11.41L205.17 8.09L192.14 8.09L192.14 28L196.24 28L196.24 11.41Z" fill="#45536D" fill-opacity="1.000000" fill-rule="evenodd"/>
</svg>
